<svg xmlns="http://www.w3.org/2000/svg" xmlns:xlink="http://www.w3.org/1999/xlink" width="500" zoomAndPan="magnify" viewBox="0 0 375 374.999991" height="500" preserveAspectRatio="xMidYMid meet" version="1.0"><defs><clipPath id="ba5e18b751"><path d="M 187.511719 351.136719 C 97.144531 351.136719 23.886719 277.878906 23.886719 187.511719 C 23.886719 97.144531 97.144531 23.886719 187.511719 23.886719 C 277.878906 23.886719 351.136719 97.144531 351.136719 187.511719 C 351.136719 277.878906 277.878906 351.136719 187.511719 351.136719 Z M 187.511719 0 C 83.953125 0 0 83.953125 0 187.511719 C 0 291.070312 83.953125 375.019531 187.511719 375.019531 C 291.070312 375.019531 375.019531 291.070312 375.019531 187.511719 C 375.019531 83.953125 291.070312 0 187.511719 0 Z M 187.511719 0 " clip-rule="nonzero"/></clipPath><clipPath id="ed10dfd125"><path d="M 89.539062 70.882812 L 262 70.882812 L 262 185 L 89.539062 185 Z M 89.539062 70.882812 " clip-rule="nonzero"/></clipPath><clipPath id="f9153b5d33"><path d="M 146 184 L 285.289062 184 L 285.289062 304.132812 L 146 304.132812 Z M 146 184 " clip-rule="nonzero"/></clipPath></defs><rect x="-37.5" width="450" fill="#ffffff" y="-37.499999" height="449.999989" fill-opacity="1"/><rect x="-37.5" width="450" fill="#343a40" y="-37.499999" height="449.999989" fill-opacity="1"/><g clip-path="url(#ba5e18b751)"><rect x="-37.5" width="450" fill="#18c3db" y="-37.499999" height="449.999989" fill-opacity="1"/></g><g clip-path="url(#ed10dfd125)"><path fill="#18c3db" d="M 146.84375 128.203125 L 146.84375 184.5 L 89.578125 184.5 L 89.578125 70.882812 L 261.378906 70.882812 L 261.378906 184.5 L 204.113281 184.5 L 204.113281 128.203125 Z M 146.84375 128.203125 " fill-opacity="1" fill-rule="nonzero"/></g><g clip-path="url(#f9153b5d33)"><path fill="#ffffff" d="M 285.253906 246.804688 L 285.253906 304.125 L 216.492188 304.125 C 207.109375 304.125 197.984375 302.300781 189.382812 298.660156 C 181.09375 295.148438 173.644531 290.152344 167.261719 283.761719 C 160.878906 277.371094 155.855469 269.921875 152.347656 261.621094 C 148.710938 253.011719 146.847656 243.886719 146.847656 234.492188 L 146.847656 184.5 L 204.113281 184.5 L 204.113281 234.492188 C 204.113281 241.300781 209.695312 246.804688 216.496094 246.804688 Z M 285.253906 246.804688 " fill-opacity="1" fill-rule="nonzero"/></g></svg>